<?xml version="1.0" encoding="UTF-8" standalone="no"?>
<!DOCTYPE svg PUBLIC "-//W3C//DTD SVG 1.0//EN" "http://www.w3.org/TR/2001/PR-SVG-20010719/DTD/svg10.dtd">
<svg width="19cm" height="23cm" viewBox="4319 -47 371 451" xmlns="http://www.w3.org/2000/svg" xmlns:xlink="http://www.w3.org/1999/xlink">
  <g>
    <rect style="fill: #ffffff" x="4320.25" y="31.5" width="93" height="100"/>
    <rect style="fill: none; fill-opacity:0; stroke-width: 2; stroke: #000000" x="4320.25" y="31.5" width="93" height="100"/>
    <text font-size="12.7998" style="fill: #000000;text-anchor:middle;font-family:sans-serif;font-style:normal;font-weight:normal" x="4366.75" y="85.4">
      <tspan x="4366.75" y="85.4"></tspan>
    </text>
  </g>
  <g>
    <rect style="fill: #ffffff" x="4336.25" y="3.5" width="96" height="104"/>
    <rect style="fill: none; fill-opacity:0; stroke-width: 2; stroke: #000000" x="4336.25" y="3.5" width="96" height="104"/>
    <text font-size="12.7998" style="fill: #000000;text-anchor:middle;font-family:sans-serif;font-style:normal;font-weight:normal" x="4384.25" y="59.4">
      <tspan x="4384.25" y="59.4"></tspan>
    </text>
  </g>
  <g>
    <rect style="fill: #ffffff" x="4352.25" y="-29.5" width="100" height="110"/>
    <rect style="fill: none; fill-opacity:0; stroke-width: 2; stroke: #000000" x="4352.25" y="-29.5" width="100" height="110"/>
    <text font-size="12.7998" style="fill: #000000;text-anchor:middle;font-family:sans-serif;font-style:normal;font-weight:normal" x="4402.25" y="29.4">
      <tspan x="4402.25" y="29.4"></tspan>
    </text>
  </g>
  <text font-size="12.7998" style="fill: #000000;text-anchor:start;font-family:sans-serif;font-style:normal;font-weight:normal" x="4438.25" y="194.5">
    <tspan x="4438.25" y="194.5"></tspan>
  </text>
  <text font-size="12.7998" style="fill: #000000;text-anchor:start;font-family:sans-serif;font-style:normal;font-weight:normal" x="4454.25" y="190.5">
    <tspan x="4454.25" y="190.5"></tspan>
  </text>
  <text font-size="12.7998" style="fill: #000000;text-anchor:start;font-family:sans-serif;font-style:normal;font-weight:normal" x="4327.25" y="145.5">
    <tspan x="4327.25" y="145.5"></tspan>
  </text>
  <text font-size="12.7998" style="fill: #000000;text-anchor:start;font-family:sans-serif;font-style:normal;font-weight:normal" x="4327.25" y="147.5">
    <tspan x="4327.25" y="147.5">Squares </tspan>
    <tspan x="4327.25" y="163.5">are reliable,</tspan>
    <tspan x="4327.25" y="179.5">give stability</tspan>
    <tspan x="4327.25" y="195.5">and suggest</tspan>
    <tspan x="4327.25" y="211.5">order.</tspan>
  </text>
  <g>
    <ellipse style="fill: #ffffff" cx="4590.43" cy="-6.53364" rx="37.5673" ry="38.5336"/>
    <ellipse style="fill: none; fill-opacity:0; stroke-width: 2; stroke: #000000" cx="4590.43" cy="-6.53364" rx="37.5673" ry="38.5336"/>
    <text font-size="12.7998" style="fill: #000000;text-anchor:middle;font-family:sans-serif;font-style:normal;font-weight:normal" x="4590.43" y="-2.63364">
      <tspan x="4590.43" y="-2.63364"></tspan>
    </text>
  </g>
  <g>
    <ellipse style="fill: #ffffff" cx="4558.93" cy="28.4664" rx="38.0673" ry="32.5336"/>
    <ellipse style="fill: none; fill-opacity:0; stroke-width: 2; stroke: #000000" cx="4558.93" cy="28.4664" rx="38.0673" ry="32.5336"/>
    <text font-size="12.7998" style="fill: #000000;text-anchor:middle;font-family:sans-serif;font-style:normal;font-weight:normal" x="4558.93" y="32.3664">
      <tspan x="4558.93" y="32.3664"></tspan>
    </text>
  </g>
  <g>
    <ellipse style="fill: #ffffff" cx="4627.43" cy="23.4664" rx="41.5673" ry="34.5336"/>
    <ellipse style="fill: none; fill-opacity:0; stroke-width: 2; stroke: #000000" cx="4627.43" cy="23.4664" rx="41.5673" ry="34.5336"/>
    <text font-size="12.7998" style="fill: #000000;text-anchor:middle;font-family:sans-serif;font-style:normal;font-weight:normal" x="4627.43" y="27.3664">
      <tspan x="4627.43" y="27.3664"></tspan>
    </text>
  </g>
  <text font-size="12.7998" style="fill: #000000;text-anchor:start;font-family:sans-serif;font-style:normal;font-weight:normal" x="4541" y="79">
    <tspan x="4541" y="79">Circles represent</tspan>
    <tspan x="4541" y="95">completion, wholeness</tspan>
    <tspan x="4541" y="111">and harmony</tspan>
  </text>
  <g>
    <polygon style="fill: #ffffff" points="4557,198.5 4610,198.5 4583.5,252.5 "/>
    <polygon style="fill: none; fill-opacity:0; stroke-width: 2; stroke: #000000" points="4557,198.5 4610,198.5 4583.5,252.5 "/>
    <text font-size="12.7998" style="fill: #000000;text-anchor:middle;font-family:sans-serif;font-style:normal;font-weight:normal" x="4583.5" y="216">
      <tspan x="4583.5" y="216"></tspan>
    </text>
  </g>
  <g>
    <polygon style="fill: #ffffff" points="4550,210.5 4619,210.5 4584.5,269.5 "/>
    <polygon style="fill: none; fill-opacity:0; stroke-width: 2; stroke: #000000" points="4550,210.5 4619,210.5 4584.5,269.5 "/>
    <text font-size="12.7998" style="fill: #000000;text-anchor:middle;font-family:sans-serif;font-style:normal;font-weight:normal" x="4584.5" y="229.25">
      <tspan x="4584.5" y="229.25"></tspan>
    </text>
  </g>
  <g>
    <polygon style="fill: #ffffff" points="4535,227.5 4568,227.5 4551.5,271.5 "/>
    <polygon style="fill: none; fill-opacity:0; stroke-width: 2; stroke: #000000" points="4535,227.5 4568,227.5 4551.5,271.5 "/>
    <text font-size="12.7998" style="fill: #000000;text-anchor:middle;font-family:sans-serif;font-style:normal;font-weight:normal" x="4551.5" y="242.5">
      <tspan x="4551.5" y="242.5"></tspan>
    </text>
  </g>
  <g>
    <polygon style="fill: #ffffff" points="4605,248.5 4645,248.5 4625,292.5 "/>
    <polygon style="fill: none; fill-opacity:0; stroke-width: 2; stroke: #000000" points="4605,248.5 4645,248.5 4625,292.5 "/>
    <text font-size="12.7998" style="fill: #000000;text-anchor:middle;font-family:sans-serif;font-style:normal;font-weight:normal" x="4625" y="263.5">
      <tspan x="4625" y="263.5"></tspan>
    </text>
  </g>
  <text font-size="12.7998" style="fill: #000000;text-anchor:start;font-family:sans-serif;font-style:normal;font-weight:normal" x="4546" y="293.5">
    <tspan x="4546" y="293.5"></tspan>
  </text>
  <text font-size="12.7998" style="fill: #000000;text-anchor:start;font-family:sans-serif;font-style:normal;font-weight:normal" x="4541" y="307.5">
    <tspan x="4541" y="307.5">Triangles that </tspan>
    <tspan x="4541" y="323.5">point down suggest</tspan>
    <tspan x="4541" y="339.5">instability, but provide </tspan>
    <tspan x="4541" y="355.5">direction</tspan>
  </text>
  <g>
    <polygon style="fill: #ffffff" points="4326,349.5 4425,349.5 4375.5,250.5 "/>
    <polygon style="fill: none; fill-opacity:0; stroke-width: 2; stroke: #000000" points="4326,349.5 4425,349.5 4375.5,250.5 "/>
    <text font-size="12.7998" style="fill: #000000;text-anchor:middle;font-family:sans-serif;font-style:normal;font-weight:normal" x="4375.5" y="328.75">
      <tspan x="4375.5" y="328.75"></tspan>
    </text>
  </g>
  <g>
    <polygon style="fill: #ffffff" points="4346,342 4404,342 4375,271 "/>
    <polygon style="fill: none; fill-opacity:0; stroke-width: 2; stroke: #000000" points="4346,342 4404,342 4375,271 "/>
    <text font-size="12.7998" style="fill: #000000;text-anchor:middle;font-family:sans-serif;font-style:normal;font-weight:normal" x="4375" y="328.25">
      <tspan x="4375" y="328.25"></tspan>
    </text>
  </g>
  <g>
    <polygon style="fill: #ffffff" points="4355,335 4395,335 4375,291 "/>
    <polygon style="fill: none; fill-opacity:0; stroke-width: 2; stroke: #000000" points="4355,335 4395,335 4375,291 "/>
    <text font-size="12.7998" style="fill: #000000;text-anchor:middle;font-family:sans-serif;font-style:normal;font-weight:normal" x="4375" y="328">
      <tspan x="4375" y="328"></tspan>
    </text>
  </g>
  <text font-size="12.7998" style="fill: #000000;text-anchor:start;font-family:sans-serif;font-style:normal;font-weight:normal" x="4323" y="369">
    <tspan x="4323" y="369">Triangles that point</tspan>
    <tspan x="4323" y="385">up represent direction</tspan>
    <tspan x="4323" y="401">and power</tspan>
  </text>
</svg>
