<?xml version="1.0" encoding="UTF-8" standalone="no"?>
<!DOCTYPE svg PUBLIC "-//W3C//DTD SVG 1.0//EN" "http://www.w3.org/TR/2001/PR-SVG-20010719/DTD/svg10.dtd">
<svg width="11cm" height="17cm" viewBox="363 -214 216 336" xmlns="http://www.w3.org/2000/svg" xmlns:xlink="http://www.w3.org/1999/xlink">
  <text font-size="12.8" style="fill: #000000;text-anchor:start;font-family:sans-serif;font-style:normal;font-weight:normal" x="458.5" y="-89">
    <tspan x="458.5" y="-89"></tspan>
  </text>
  <g>
    <polygon style="fill: #ffffff" points="387.779,-133 579,-133 564.805,-94 373.584,-94 "/>
    <polygon style="fill: none; fill-opacity:0; stroke-width: 0.02; stroke: #000000" points="387.779,-133 579,-133 564.805,-94 373.584,-94 "/>
    <text font-size="12.7998" style="fill: #000000;text-anchor:middle;font-family:sans-serif;font-style:normal;font-weight:normal" x="476.292" y="-108.7">
      <tspan x="476.292" y="-108.7">Input the first Number - A</tspan>
    </text>
  </g>
  <g>
    <ellipse style="fill: #ffffff" cx="469.5" cy="-187.127" rx="89.5" ry="26.1267"/>
    <ellipse style="fill: none; fill-opacity:0; stroke-width: 0.02; stroke: #000000" cx="469.5" cy="-187.127" rx="89.5" ry="26.1267"/>
    <text font-size="12.7998" style="fill: #000000;text-anchor:middle;font-family:sans-serif;font-style:normal;font-weight:normal" x="469.5" y="-182.327">
      <tspan x="469.5" y="-182.327">Start</tspan>
    </text>
  </g>
  <g>
    <polygon style="fill: #ffffff" points="378.459,-66.2 571.082,-66.2 556.524,-26.2 363.9,-26.2 "/>
    <polygon style="fill: none; fill-opacity:0; stroke-width: 0.02; stroke: #000000" points="378.459,-66.2 571.082,-66.2 556.524,-26.2 363.9,-26.2 "/>
    <text font-size="12.7998" style="fill: #000000;text-anchor:middle;font-family:sans-serif;font-style:normal;font-weight:normal" x="467.491" y="-41.4">
      <tspan x="467.491" y="-41.4">Input the Second Number - B</tspan>
    </text>
  </g>
  <g>
    <rect style="fill: #ffffff" x="369" y="5" width="196" height="36"/>
    <rect style="fill: none; fill-opacity:0; stroke-width: 0.02; stroke: #000000" x="369" y="5" width="196" height="36"/>
    <text font-size="12.7998" style="fill: #000000;text-anchor:middle;font-family:sans-serif;font-style:normal;font-weight:normal" x="467" y="27.8">
      <tspan x="467" y="27.8">C = A +B</tspan>
    </text>
  </g>
  <g>
    <ellipse style="fill: #ffffff" cx="467" cy="95.9267" rx="89.5" ry="26.1267"/>
    <ellipse style="fill: none; fill-opacity:0; stroke-width: 0.02; stroke: #000000" cx="467" cy="95.9267" rx="89.5" ry="26.1267"/>
    <text font-size="12.7998" style="fill: #000000;text-anchor:middle;font-family:sans-serif;font-style:normal;font-weight:normal" x="467" y="100.727">
      <tspan x="467" y="100.727">End</tspan>
    </text>
  </g>
  <g>
    <line style="fill: none; fill-opacity:0; stroke-width: 0.02; stroke: #000000" x1="469.5" y1="-161" x2="469.139" y2="-141.501"/>
    <polygon style="fill: none; fill-opacity:0; stroke-width: 0.02; stroke: #000000" points="469,-134.002 464.186,-144.093 469.139,-141.501 474.184,-143.908 "/>
  </g>
  <g>
    <line style="fill: none; fill-opacity:0; stroke-width: 0.02; stroke: #000000" x1="466.657" y1="-94.0094" x2="467.011" y2="-73.6956"/>
    <polygon style="fill: none; fill-opacity:0; stroke-width: 0.02; stroke: #000000" points="467.142,-66.1968 461.968,-76.108 467.011,-73.6956 471.967,-76.2825 "/>
  </g>
  <g>
    <line style="fill: none; fill-opacity:0; stroke-width: 0.02; stroke: #000000" x1="467.292" y1="-26.2005" x2="467.075" y2="-4.50186"/>
    <polygon style="fill: none; fill-opacity:0; stroke-width: 0.02; stroke: #000000" points="467,2.99776 462.1,-7.05165 467.075,-4.50186 472.1,-6.95182 "/>
  </g>
  <g>
    <line style="fill: none; fill-opacity:0; stroke-width: 0.02; stroke: #000000" x1="467" y1="41" x2="467" y2="62.2978"/>
    <polygon style="fill: none; fill-opacity:0; stroke-width: 0.02; stroke: #000000" points="467,69.7978 462,59.7978 467,62.2978 472,59.7978 "/>
  </g>
</svg>
