<?xml version="1.0" encoding="UTF-8" standalone="no"?>
<!DOCTYPE svg PUBLIC "-//W3C//DTD SVG 1.0//EN" "http://www.w3.org/TR/2001/PR-SVG-20010719/DTD/svg10.dtd">
<svg width="15cm" height="20cm" viewBox="389 -20 287 385" xmlns="http://www.w3.org/2000/svg" xmlns:xlink="http://www.w3.org/1999/xlink">
  <g>
    <polygon style="fill: #ffffff" points="452,-16.7781 500,81.2219 404,81.2219 "/>
    <polygon style="fill: none; fill-opacity:0; stroke-width: 2; stroke: #000000" points="452,-16.7781 500,81.2219 404,81.2219 "/>
  </g>
  <g>
    <polygon style="fill: #ffffff" points="393,263.972 432,263.972 451.5,231.222 471,263.972 510,263.972 490.5,296.722 510,329.472 471,329.472 451.5,362.222 432,329.472 393,329.472 412.5,296.722 "/>
    <polygon style="fill: none; fill-opacity:0; stroke-width: 2; stroke: #000000" points="393,263.972 432,263.972 451.5,231.222 471,263.972 510,263.972 490.5,296.722 510,329.472 471,329.472 451.5,362.222 432,329.472 393,329.472 412.5,296.722 "/>
    <polygon style="fill: none; fill-opacity:0; stroke-width: 2; stroke: #000000" points="393,263.972 432,263.972 451.5,231.222 471,263.972 510,263.972 490.5,296.722 510,329.472 471,329.472 451.5,362.222 432,329.472 393,329.472 412.5,296.722 "/>
  </g>
  <g>
    <polygon style="fill: #ffffff" points="391.369,310.825 404.702,310.825 411.369,300.825 418.035,310.825 431.369,310.825 424.702,320.825 431.369,330.825 418.035,330.825 411.369,340.825 404.702,330.825 391.369,330.825 398.035,320.825 "/>
    <polygon style="fill: none; fill-opacity:0; stroke-width: 2; stroke: #000000" points="391.369,310.825 404.702,310.825 411.369,300.825 418.035,310.825 431.369,310.825 424.702,320.825 431.369,330.825 418.035,330.825 411.369,340.825 404.702,330.825 391.369,330.825 398.035,320.825 "/>
    <polygon style="fill: none; fill-opacity:0; stroke-width: 2; stroke: #000000" points="391.369,310.825 404.702,310.825 411.369,300.825 418.035,310.825 431.369,310.825 424.702,320.825 431.369,330.825 418.035,330.825 411.369,340.825 404.702,330.825 391.369,330.825 398.035,320.825 "/>
  </g>
  <g>
    <polygon style="fill: #ffffff" points="472.369,262.825 485.702,262.825 492.369,252.825 499.035,262.825 512.369,262.825 505.702,272.825 512.369,282.825 499.035,282.825 492.369,292.825 485.702,282.825 472.369,282.825 479.035,272.825 "/>
    <polygon style="fill: none; fill-opacity:0; stroke-width: 2; stroke: #000000" points="472.369,262.825 485.702,262.825 492.369,252.825 499.035,262.825 512.369,262.825 505.702,272.825 512.369,282.825 499.035,282.825 492.369,292.825 485.702,282.825 472.369,282.825 479.035,272.825 "/>
    <polygon style="fill: none; fill-opacity:0; stroke-width: 2; stroke: #000000" points="472.369,262.825 485.702,262.825 492.369,252.825 499.035,262.825 512.369,262.825 505.702,272.825 512.369,282.825 499.035,282.825 492.369,292.825 485.702,282.825 472.369,282.825 479.035,272.825 "/>
  </g>
  <g>
    <polygon style="fill: #ffffff" points="430.869,242.625 444.202,242.625 450.869,232.625 457.535,242.625 470.869,242.625 464.202,252.625 470.869,262.625 457.535,262.625 450.869,272.625 444.202,262.625 430.869,262.625 437.535,252.625 "/>
    <polygon style="fill: none; fill-opacity:0; stroke-width: 2; stroke: #000000" points="430.869,242.625 444.202,242.625 450.869,232.625 457.535,242.625 470.869,242.625 464.202,252.625 470.869,262.625 457.535,262.625 450.869,272.625 444.202,262.625 430.869,262.625 437.535,252.625 "/>
    <polygon style="fill: none; fill-opacity:0; stroke-width: 2; stroke: #000000" points="430.869,242.625 444.202,242.625 450.869,232.625 457.535,242.625 470.869,242.625 464.202,252.625 470.869,262.625 457.535,262.625 450.869,272.625 444.202,262.625 430.869,262.625 437.535,252.625 "/>
  </g>
  <g>
    <polygon style="fill: #ffffff" points="392.869,264.225 406.202,264.225 412.869,254.225 419.535,264.225 432.869,264.225 426.202,274.225 432.869,284.225 419.535,284.225 412.869,294.225 406.202,284.225 392.869,284.225 399.535,274.225 "/>
    <polygon style="fill: none; fill-opacity:0; stroke-width: 2; stroke: #000000" points="392.869,264.225 406.202,264.225 412.869,254.225 419.535,264.225 432.869,264.225 426.202,274.225 432.869,284.225 419.535,284.225 412.869,294.225 406.202,284.225 392.869,284.225 399.535,274.225 "/>
    <polygon style="fill: none; fill-opacity:0; stroke-width: 2; stroke: #000000" points="392.869,264.225 406.202,264.225 412.869,254.225 419.535,264.225 432.869,264.225 426.202,274.225 432.869,284.225 419.535,284.225 412.869,294.225 406.202,284.225 392.869,284.225 399.535,274.225 "/>
  </g>
  <g>
    <polygon style="fill: #ffffff" points="470.369,310.025 483.702,310.025 490.369,300.025 497.035,310.025 510.369,310.025 503.702,320.025 510.369,330.025 497.035,330.025 490.369,340.025 483.702,330.025 470.369,330.025 477.035,320.025 "/>
    <polygon style="fill: none; fill-opacity:0; stroke-width: 2; stroke: #000000" points="470.369,310.025 483.702,310.025 490.369,300.025 497.035,310.025 510.369,310.025 503.702,320.025 510.369,330.025 497.035,330.025 490.369,340.025 483.702,330.025 470.369,330.025 477.035,320.025 "/>
    <polygon style="fill: none; fill-opacity:0; stroke-width: 2; stroke: #000000" points="470.369,310.025 483.702,310.025 490.369,300.025 497.035,310.025 510.369,310.025 503.702,320.025 510.369,330.025 497.035,330.025 490.369,340.025 483.702,330.025 470.369,330.025 477.035,320.025 "/>
  </g>
  <g>
    <polygon style="fill: #ffffff" points="432.869,331.825 446.202,331.825 452.869,321.825 459.535,331.825 472.869,331.825 466.202,341.825 472.869,351.825 459.535,351.825 452.869,361.825 446.202,351.825 432.869,351.825 439.535,341.825 "/>
    <polygon style="fill: none; fill-opacity:0; stroke-width: 2; stroke: #000000" points="432.869,331.825 446.202,331.825 452.869,321.825 459.535,331.825 472.869,331.825 466.202,341.825 472.869,351.825 459.535,351.825 452.869,361.825 446.202,351.825 432.869,351.825 439.535,341.825 "/>
    <polygon style="fill: none; fill-opacity:0; stroke-width: 2; stroke: #000000" points="432.869,331.825 446.202,331.825 452.869,321.825 459.535,331.825 472.869,331.825 466.202,341.825 472.869,351.825 459.535,351.825 452.869,361.825 446.202,351.825 432.869,351.825 439.535,341.825 "/>
  </g>
  <g>
    <polygon style="fill: #ffffff" points="392.259,264.038 431.84,264.038 451.63,230.977 471.42,264.038 511,264.038 491.21,297.099 511,330.161 471.42,330.161 451.63,363.222 431.84,330.161 392.259,330.161 412.049,297.099 "/>
    <polygon style="fill: none; fill-opacity:0; stroke-width: 2; stroke: #000000" points="392.259,264.038 431.84,264.038 451.63,230.977 471.42,264.038 511,264.038 491.21,297.099 511,330.161 471.42,330.161 451.63,363.222 431.84,330.161 392.259,330.161 412.049,297.099 "/>
    <polygon style="fill: none; fill-opacity:0; stroke-width: 2; stroke: #000000" points="392.259,264.038 431.84,264.038 451.63,230.977 471.42,264.038 511,264.038 491.21,297.099 511,330.161 471.42,330.161 451.63,363.222 431.84,330.161 392.259,330.161 412.049,297.099 "/>
  </g>
  <text font-size="12.7998" style="fill: #000000;text-anchor:start;font-family:sans-serif;font-style:normal;font-weight:normal" x="537" y="25.2219">
    <tspan x="537" y="25.2219">Triangle  - </tspan>
    <tspan x="537" y="41.2219">Starting point for</tspan>
    <tspan x="537" y="57.2219">Koch's snowflake</tspan>
  </text>
  <g>
    <polygon style="fill: #ffffff" points="400,124.972 433.667,124.972 450.5,97.2219 467.333,124.972 501,124.972 484.167,152.722 501,180.472 467.333,180.472 450.5,208.222 433.667,180.472 400,180.472 416.833,152.722 "/>
    <polygon style="fill: none; fill-opacity:0; stroke-width: 2; stroke: #000000" points="400,124.972 433.667,124.972 450.5,97.2219 467.333,124.972 501,124.972 484.167,152.722 501,180.472 467.333,180.472 450.5,208.222 433.667,180.472 400,180.472 416.833,152.722 "/>
    <polygon style="fill: none; fill-opacity:0; stroke-width: 2; stroke: #000000" points="400,124.972 433.667,124.972 450.5,97.2219 467.333,124.972 501,124.972 484.167,152.722 501,180.472 467.333,180.472 450.5,208.222 433.667,180.472 400,180.472 416.833,152.722 "/>
  </g>
  <text font-size="12.7998" style="fill: #000000;text-anchor:start;font-family:sans-serif;font-style:normal;font-weight:normal" x="534" y="152.222">
    <tspan x="534" y="152.222">Six pointed star</tspan>
    <tspan x="534" y="168.222">2nd iteration</tspan>
  </text>
  <text font-size="12.7998" style="fill: #000000;text-anchor:start;font-family:sans-serif;font-style:normal;font-weight:normal" x="538" y="283.222">
    <tspan x="538" y="283.222">3rd iteration of</tspan>
    <tspan x="538" y="299.222"> Koch snowflake process</tspan>
  </text>
</svg>
