<?xml version="1.0" encoding="UTF-8" standalone="no"?>
<!DOCTYPE svg PUBLIC "-//W3C//DTD SVG 1.0//EN" "http://www.w3.org/TR/2001/PR-SVG-20010719/DTD/svg10.dtd">
<svg width="46cm" height="11cm" viewBox="-1731 -241691 913 206" xmlns="http://www.w3.org/2000/svg" xmlns:xlink="http://www.w3.org/1999/xlink">
  <g>
    <ellipse style="fill: #ffffff" cx="-1676.35" cy="-241606" rx="54.65" ry="18"/>
    <ellipse style="fill: none; fill-opacity:0; stroke-width: 0.02; stroke: #000000" cx="-1676.35" cy="-241606" rx="54.65" ry="18"/>
    <text font-size="12.7998" style="fill: #000000;text-anchor:middle;font-family:monospace;font-style:normal;font-weight:normal" x="-1676.35" y="-241602">StudentID</text>
  </g>
  <g>
    <rect style="fill: #ffffff" x="-1596" y="-241536" width="81.9" height="36"/>
    <rect style="fill: none; fill-opacity:0; stroke-width: 0.02; stroke: #000000" x="-1596" y="-241536" width="81.9" height="36"/>
    <text font-size="12.7998" style="fill: #000000;text-anchor:middle;font-family:monospace;font-style:normal;font-weight:normal" x="-1555.05" y="-241514">Student</text>
  </g>
  <g>
    <ellipse style="fill: #ffffff" cx="-1539.65" cy="-241670" rx="62.35" ry="18"/>
    <ellipse style="fill: none; fill-opacity:0; stroke-width: 0.02; stroke: #000000" cx="-1539.65" cy="-241670" rx="62.35" ry="18"/>
    <text font-size="12.7998" style="fill: #000000;text-anchor:middle;font-family:monospace;font-style:normal;font-weight:normal" x="-1539.65" y="-241666">StudentName</text>
  </g>
  <g>
    <ellipse style="fill: #ffffff" cx="-1415.35" cy="-241615" rx="54.65" ry="18"/>
    <ellipse style="fill: none; fill-opacity:0; stroke-width: 0.02; stroke: #000000" cx="-1415.35" cy="-241615" rx="54.65" ry="18"/>
    <text font-size="12.7998" style="fill: #000000;text-anchor:middle;font-family:monospace;font-style:normal;font-weight:normal" x="-1415.35" y="-241611">ClassName</text>
  </g>
  <g>
    <polygon style="fill: #ffffff" points="-1305,-241518 -1250.35,-241551 -1195.7,-241518 -1250.35,-241485 "/>
    <polygon style="fill: none; fill-opacity:0; stroke-width: 0.02; stroke: #000000" points="-1305,-241518 -1250.35,-241551 -1195.7,-241518 -1250.35,-241485 "/>
    <text font-size="12.7998" style="fill: #000000;text-anchor:end;font-family:monospace;font-style:normal;font-weight:normal" x="-1311" y="-241524"></text>
    <text font-size="12.7998" style="fill: #000000;text-anchor:start;font-family:monospace;font-style:normal;font-weight:normal" x="-1189.7" y="-241524"></text>
    <text font-size="12.7998" style="fill: #000000;text-anchor:middle;font-family:monospace;font-style:normal;font-weight:normal" x="-1250.35" y="-241514">Possesses</text>
  </g>
  <g>
    <rect style="fill: #ffffff" x="-1025" y="-241536" width="105" height="36"/>
    <rect style="fill: none; fill-opacity:0; stroke-width: 0.02; stroke: #000000" x="-1025" y="-241536" width="105" height="36"/>
    <text font-size="12.7998" style="fill: #000000;text-anchor:middle;font-family:monospace;font-style:normal;font-weight:normal" x="-972.5" y="-241514">Transcript</text>
  </g>
  <g>
    <ellipse style="fill: #ffffff" cx="-1133.8" cy="-241611" rx="66.2" ry="18"/>
    <ellipse style="fill: none; fill-opacity:0; stroke-width: 0.02; stroke: #000000" cx="-1133.8" cy="-241611" rx="66.2" ry="18"/>
    <text font-size="12.7998" style="fill: #000000;text-anchor:middle;font-family:monospace;font-style:normal;font-weight:normal" x="-1133.8" y="-241607">TranscriptID</text>
  </g>
  <g>
    <ellipse style="fill: #ffffff" cx="-992.35" cy="-241673" rx="54.65" ry="18"/>
    <ellipse style="fill: none; fill-opacity:0; stroke-width: 0.02; stroke: #000000" cx="-992.35" cy="-241673" rx="54.65" ry="18"/>
    <text font-size="12.7998" style="fill: #000000;text-anchor:middle;font-family:monospace;font-style:normal;font-weight:normal" x="-992.35" y="-241669">StudentID</text>
  </g>
  <g>
    <ellipse style="fill: #ffffff" cx="-857.75" cy="-241614" rx="39.25" ry="18"/>
    <ellipse style="fill: none; fill-opacity:0; stroke-width: 0.02; stroke: #000000" cx="-857.75" cy="-241614" rx="39.25" ry="18"/>
    <text font-size="12.7998" style="fill: #000000;text-anchor:middle;font-family:monospace;font-style:normal;font-weight:normal" x="-857.75" y="-241610">Score</text>
  </g>
  <line style="fill: none; fill-opacity:0; stroke-width: 0.02; stroke: #000000" x1="-1676.35" y1="-241588" x2="-1596" y2="-241518"/>
  <line style="fill: none; fill-opacity:0; stroke-width: 0.02; stroke: #000000" x1="-1539.65" y1="-241652" x2="-1552.98" y2="-241536"/>
  <line style="fill: none; fill-opacity:0; stroke-width: 0.02; stroke: #000000" x1="-1415.35" y1="-241597" x2="-1514.1" y2="-241518"/>
  <line style="fill: none; fill-opacity:0; stroke-width: 0.02; stroke: #000000" x1="-1514.1" y1="-241518" x2="-1305" y2="-241518"/>
  <line style="fill: none; fill-opacity:0; stroke-width: 0.02; stroke: #000000" x1="-1195.7" y1="-241518" x2="-1025" y2="-241518"/>
  <line style="fill: none; fill-opacity:0; stroke-width: 0.02; stroke: #000000" x1="-1133.8" y1="-241593" x2="-1025" y2="-241518"/>
  <line style="fill: none; fill-opacity:0; stroke-width: 0.02; stroke: #000000" x1="-992.35" y1="-241655" x2="-972.5" y2="-241536"/>
  <line style="fill: none; fill-opacity:0; stroke-width: 0.02; stroke: #000000" x1="-857.75" y1="-241596" x2="-920" y2="-241518"/>
</svg>
