<?xml version="1.0" encoding="UTF-8" standalone="no"?>
<!DOCTYPE svg PUBLIC "-//W3C//DTD SVG 1.0//EN" "http://www.w3.org/TR/2001/PR-SVG-20010719/DTD/svg10.dtd">
<svg width="13cm" height="24cm" viewBox="4 5 253 474" xmlns="http://www.w3.org/2000/svg" xmlns:xlink="http://www.w3.org/1999/xlink">
  <g>
    <rect style="fill: #ffffff" x="14.7" y="205" width="237.8" height="78"/>
    <rect style="fill: none; fill-opacity:0; stroke-width: 2; stroke: #000000" x="14.7" y="205" width="237.8" height="78"/>
    <text font-size="12.7998" style="fill: #000000;text-anchor:middle;font-family:sans-serif;font-style:normal;font-weight:normal" x="133.6" y="240.8">
      <tspan x="133.6" y="240.8">Your GitHub repo</tspan>
      <tspan x="133.6" y="256.8">github.com/you/coolgame</tspan>
    </text>
  </g>
  <g>
    <rect style="fill: #ffffff" x="5.5" y="6" width="250" height="82"/>
    <rect style="fill: none; fill-opacity:0; stroke-width: 2; stroke: #000000" x="5.5" y="6" width="250" height="82"/>
    <text font-size="12.7998" style="fill: #000000;text-anchor:middle;font-family:sans-serif;font-style:normal;font-weight:normal" x="130.5" y="43.8">
      <tspan x="130.5" y="43.8">Joe's Github repo</tspan>
      <tspan x="130.5" y="59.8">github.com/joe/coolgame</tspan>
    </text>
  </g>
  <g>
    <rect style="fill: #ffffff" x="16.6" y="391" width="233.9" height="87"/>
    <rect style="fill: none; fill-opacity:0; stroke-width: 2; stroke: #000000" x="16.6" y="391" width="233.9" height="87"/>
    <text font-size="12.7998" style="fill: #000000;text-anchor:middle;font-family:sans-serif;font-style:normal;font-weight:normal" x="133.55" y="423.3">
      <tspan x="133.55" y="423.3">Your computer</tspan>
      <tspan x="133.55" y="439.3">3. Update a file</tspan>
      <tspan x="133.55" y="455.3">4. Commit</tspan>
    </text>
  </g>
  <g>
    <polygon style="fill: #ffffff" points="15.45,100 116.5,100 65.975,204 "/>
    <polygon style="fill: none; fill-opacity:0; stroke-width: 2; stroke: #000000" points="15.45,100 116.5,100 65.975,204 "/>
    <text font-size="12.7998" style="fill: #000000;text-anchor:middle;font-family:sans-serif;font-style:normal;font-weight:normal" x="65.975" y="131">
      <tspan x="65.975" y="131">1. Fork</tspan>
    </text>
  </g>
  <g>
    <polygon style="fill: #ffffff" points="129.3,194 232.7,194 181,96 "/>
    <polygon style="fill: none; fill-opacity:0; stroke-width: 2; stroke: #000000" points="129.3,194 232.7,194 181,96 "/>
    <text font-size="12.7998" style="fill: #000000;text-anchor:middle;font-family:sans-serif;font-style:normal;font-weight:normal" x="181" y="166.5">
      <tspan x="181" y="166.5">6. Pull</tspan>
      <tspan x="181" y="182.5">Request</tspan>
    </text>
  </g>
  <g>
    <polygon style="fill: #ffffff" points="16.6,291 121.4,291 69,386 "/>
    <polygon style="fill: none; fill-opacity:0; stroke-width: 2; stroke: #000000" points="16.6,291 121.4,291 69,386 "/>
    <text font-size="12.7998" style="fill: #000000;text-anchor:middle;font-family:sans-serif;font-style:normal;font-weight:normal" x="69" y="319.75">
      <tspan x="69" y="319.75">2. Clone</tspan>
    </text>
  </g>
  <g>
    <polygon style="fill: #ffffff" points="131.05,382 226.95,382 179,285 "/>
    <polygon style="fill: none; fill-opacity:0; stroke-width: 2; stroke: #000000" points="131.05,382 226.95,382 179,285 "/>
    <text font-size="12.7998" style="fill: #000000;text-anchor:middle;font-family:sans-serif;font-style:normal;font-weight:normal" x="179" y="354.75">
      <tspan x="179" y="354.75">5. Push</tspan>
      <tspan x="179" y="370.75"></tspan>
    </text>
  </g>
</svg>
