<?xml version="1.0" encoding="UTF-8"?>
<svg xmlns="http://www.w3.org/2000/svg" xmlns:xlink="http://www.w3.org/1999/xlink" width="560pt" height="141pt" viewBox="0 0 560 141" version="1.1">
<g id="surface14052">
<rect x="0" y="0" width="560" height="141" style="fill:rgb(100%,100%,100%);fill-opacity:1;stroke:none;"/>
<path style="fill-rule:evenodd;fill:rgb(100%,100%,100%);fill-opacity:1;stroke-width:0.1;stroke-linecap:butt;stroke-linejoin:miter;stroke:rgb(0%,0%,0%);stroke-opacity:1;stroke-miterlimit:10;" d="M 17.45 6.149943 L 24.8 6.149943 L 24.8 11.499943 L 17.45 11.499943 Z M 17.45 6.149943 " transform="matrix(20,0,0,20,-348,-117.893398)"/>
<path style="fill-rule:evenodd;fill:rgb(100%,100%,100%);fill-opacity:1;stroke-width:0.1;stroke-linecap:butt;stroke-linejoin:miter;stroke:rgb(0%,0%,0%);stroke-opacity:1;stroke-miterlimit:10;" d="M 35.3 9.823381 C 35.3 11.301701 33.843359 12.499943 32.04668 12.499943 C 30.249805 12.499943 28.793359 11.301701 28.793359 9.823381 C 28.793359 8.345061 30.249805 7.146623 32.04668 7.146623 C 33.843359 7.146623 35.3 8.345061 35.3 9.823381 " transform="matrix(20,0,0,20,-348,-117.893398)"/>
<path style="fill-rule:evenodd;fill:rgb(100%,100%,100%);fill-opacity:1;stroke-width:0.1;stroke-linecap:butt;stroke-linejoin:miter;stroke:rgb(0%,0%,0%);stroke-opacity:1;stroke-miterlimit:10;" d="M 41.269727 5.94467 L 45.4 9.422404 L 41.269727 12.899943 L 37.139258 9.422404 Z M 41.269727 5.94467 " transform="matrix(20,0,0,20,-348,-117.893398)"/>
</g>
</svg>
