<?xml version="1.0" encoding="UTF-8" standalone="no"?>
<!DOCTYPE svg PUBLIC "-//W3C//DTD SVG 1.0//EN" "http://www.w3.org/TR/2001/PR-SVG-20010719/DTD/svg10.dtd">
<svg width="45cm" height="10cm" viewBox="62 112 892 195" xmlns="http://www.w3.org/2000/svg" xmlns:xlink="http://www.w3.org/1999/xlink">
  <g>
    <rect style="fill: #ffffff" x="205" y="256" width="81.9" height="36"/>
    <rect style="fill: none; fill-opacity:0; stroke-width: 2.6; stroke: #000000" x="205" y="256" width="81.9" height="36"/>
    <text font-size="12.7998" style="fill: #000000;text-anchor:middle;font-family:monospace;font-style:normal;font-weight:normal" x="245.95" y="278">Student</text>
  </g>
  <g>
    <ellipse style="fill: #ffffff" cx="118.65" cy="205" rx="54.65" ry="18"/>
    <ellipse style="fill: none; fill-opacity:0; stroke-width: 2.6; stroke: #000000" cx="118.65" cy="205" rx="54.65" ry="18"/>
    <text font-size="12.7998" style="fill: #000000;text-anchor:middle;font-family:monospace;font-style:normal;font-weight:normal" x="118.65" y="209">StudentID</text>
  </g>
  <g>
    <ellipse style="fill: #ffffff" cx="232.35" cy="132" rx="62.35" ry="18"/>
    <ellipse style="fill: none; fill-opacity:0; stroke-width: 2.6; stroke: #000000" cx="232.35" cy="132" rx="62.35" ry="18"/>
    <text font-size="12.7998" style="fill: #000000;text-anchor:middle;font-family:monospace;font-style:normal;font-weight:normal" x="232.35" y="136">StudentName</text>
  </g>
  <g>
    <ellipse style="fill: #ffffff" cx="360.65" cy="200" rx="54.65" ry="18"/>
    <ellipse style="fill: none; fill-opacity:0; stroke-width: 2.6; stroke: #000000" cx="360.65" cy="200" rx="54.65" ry="18"/>
    <text font-size="12.7998" style="fill: #000000;text-anchor:middle;font-family:monospace;font-style:normal;font-weight:normal" x="360.65" y="204">ClassName</text>
  </g>
  <g>
    <polygon style="fill: #ffffff" points="477,272.79 531.65,240 586.3,272.79 531.65,305.58 "/>
    <polygon style="fill: none; fill-opacity:0; stroke-width: 2.6; stroke: #000000" points="477,272.79 531.65,240 586.3,272.79 531.65,305.58 "/>
    <text font-size="12.7998" style="fill: #000000;text-anchor:end;font-family:monospace;font-style:normal;font-weight:normal" x="471" y="266.79"></text>
    <text font-size="12.7998" style="fill: #000000;text-anchor:start;font-family:monospace;font-style:normal;font-weight:normal" x="592.3" y="266.79"></text>
    <text font-size="12.7998" style="fill: #000000;text-anchor:middle;font-family:monospace;font-style:normal;font-weight:normal" x="531.65" y="276.79">Possesses</text>
  </g>
  <g>
    <rect style="fill: #ffffff" x="768" y="256" width="105" height="36"/>
    <rect style="fill: none; fill-opacity:0; stroke-width: 2.6; stroke: #000000" x="768" y="256" width="105" height="36"/>
    <text font-size="12.7998" style="fill: #000000;text-anchor:middle;font-family:monospace;font-style:normal;font-weight:normal" x="820.5" y="278">Transcript</text>
  </g>
  <g>
    <ellipse style="fill: #ffffff" cx="663.2" cy="192" rx="66.2" ry="18"/>
    <ellipse style="fill: none; fill-opacity:0; stroke-width: 2.6; stroke: #000000" cx="663.2" cy="192" rx="66.2" ry="18"/>
    <text font-size="12.7998" style="fill: #000000;text-anchor:middle;font-family:monospace;font-style:normal;font-weight:normal" x="663.2" y="196">TranscriptID</text>
  </g>
  <g>
    <ellipse style="fill: #ffffff" cx="795.65" cy="135" rx="54.65" ry="18"/>
    <ellipse style="fill: none; fill-opacity:0; stroke-width: 2.6; stroke: #000000" cx="795.65" cy="135" rx="54.65" ry="18"/>
    <text font-size="12.7998" style="fill: #000000;text-anchor:middle;font-family:monospace;font-style:normal;font-weight:normal" x="795.65" y="139">StudentID</text>
  </g>
  <g>
    <ellipse style="fill: #ffffff" cx="913.25" cy="191" rx="39.25" ry="18"/>
    <ellipse style="fill: none; fill-opacity:0; stroke-width: 2.6; stroke: #000000" cx="913.25" cy="191" rx="39.25" ry="18"/>
    <text font-size="12.7998" style="fill: #000000;text-anchor:middle;font-family:monospace;font-style:normal;font-weight:normal" x="913.25" y="195">Score</text>
  </g>
  <line style="fill: none; fill-opacity:0; stroke-width: 2.6; stroke: #000000" x1="118.65" y1="223" x2="205" y2="274"/>
  <line style="fill: none; fill-opacity:0; stroke-width: 2.6; stroke: #000000" x1="232.35" y1="150" x2="245.95" y2="256"/>
  <line style="fill: none; fill-opacity:0; stroke-width: 2.6; stroke: #000000" x1="360.65" y1="218" x2="286.9" y2="274"/>
  <line style="fill: none; fill-opacity:0; stroke-width: 2.6; stroke: #000000" x1="663.2" y1="210" x2="768" y2="274"/>
  <line style="fill: none; fill-opacity:0; stroke-width: 2.6; stroke: #000000" x1="795.65" y1="153" x2="820.5" y2="256"/>
  <line style="fill: none; fill-opacity:0; stroke-width: 2.6; stroke: #000000" x1="913.25" y1="209" x2="873" y2="274"/>
  <line style="fill: none; fill-opacity:0; stroke-width: 2.6; stroke: #000000" x1="286.9" y1="274" x2="477" y2="272.79"/>
  <line style="fill: none; fill-opacity:0; stroke-width: 2.6; stroke: #000000" x1="586.3" y1="272.79" x2="768" y2="274"/>
</svg>
